# xmcd
#
# Track frame offsets:
# 150
# 12722
# 33300
# 43242
# 54612
# 75912
# 101065
# 120195
# 139987
# 150837
# 168565
# 190812
# 207367
# 233735
# 269842
# 286597
#
# Disc length: 4182 seconds
#
#
# Revision: 2
# Processed by: cddbd v1.5.2PL0 Copyright (c) Steve Scherf et al.
# Submitted via: FreeRIP 2.945 
#
DISCID=d8105410
DTITLE=Led Zeppelin - Best Selection
DYEAR=1993
DGENRE=Rock
TTITLE0=Good Times Bad Times
TTITLE1=Your Times Is Gonna Come
TTITLE2=Blac Mountain Side
TTITLE3=Communication Breakdown
TTITLE4=I Can't Quit You Baby
TTITLE5=Whote Lotta Love
TTITLE6=Heartbreaker
TTITLE7=Moby Dick
TTITLE8=Immigrant Song
TTITLE9=Friends
TTITLE10=Black Dog
TTITLE11=Rock And Roll
TTITLE12=The Battle Of Evermore
TTITLE13=Stairway To Heaven
TTITLE14=Celebration Day
TTITLE15=The Song Remains The Same
EXTD=YEAR: 1993
EXTT0=
EXTT1=
EXTT2=
EXTT3=
EXTT4=
EXTT5=
EXTT6=
EXTT7=
EXTT8=
EXTT9=
EXTT10=
EXTT11=
EXTT12=
EXTT13=
EXTT14=
EXTT15=
PLAYORDER=
